<svg width="167" height="171" viewBox="0 0 167 171" fill="none" xmlns="http://www.w3.org/2000/svg">
<path d="M111.868 86.0167H54.2013C51.8447 86.0167 50.0426 84.0296 50.3199 81.6166L53.0923 52.0927C52.9537 33.3563 66.4001 18.0266 83.0347 18.0266C99.6694 18.0266 113.116 33.3563 113.116 52.0927L115.888 81.6166C116.027 84.0296 114.086 86.0167 111.868 86.0167Z" fill="#FFAC5A"/>
<path d="M108.541 49.8215H104.798V62.4544H108.541C110.62 62.4544 112.423 61.0349 112.423 59.1897V52.9443C112.423 51.241 110.759 49.8215 108.541 49.8215Z" fill="#448FFC"/>
<path d="M53.7854 53.0862V59.3317C53.7854 61.035 55.4489 62.5963 57.6668 62.5963H61.4096V49.9635H57.6668C55.4489 49.8216 53.7854 51.241 53.7854 53.0862Z" fill="#448FFC"/>
<path d="M132.523 147.336H33.6852V106.598C33.6852 100.069 38.2597 94.2494 45.0522 92.1202L73.4697 83.3199C79.8463 81.3327 86.5002 81.3327 92.5996 83.3199L121.017 92.1202C127.81 94.2494 132.384 100.069 132.384 106.598L132.523 147.336Z" fill="#F99653"/>
<path d="M106.185 112.276H89.6885V115.966H106.185V112.276Z" fill="#FFD551"/>
<path d="M93.5699 65.4352H72.638V95.243H93.5699V65.4352Z" fill="#EDBF9A"/>
<path d="M106.878 50.8151C106.878 67.2804 96.2038 84.0295 83.1733 84.0295C70.1428 84.0295 59.3303 67.1384 59.3303 50.8151C59.3303 34.4918 70.0042 24.4139 83.1733 24.4139C96.3424 24.4139 106.878 34.3499 106.878 50.8151Z" fill="#FFD9B6"/>
<path d="M56.4192 117.812H55.7261C55.033 117.812 54.3399 118.379 54.3399 119.231V147.194H57.9441V119.373C57.8055 118.521 57.1123 117.812 56.4192 117.812Z" fill="#E08344"/>
<path d="M110.62 117.812H109.927C109.234 117.812 108.541 118.379 108.541 119.231V147.194H112.145V119.373C112.007 118.521 111.452 117.812 110.62 117.812Z" fill="#E08344"/>
<path d="M93.57 85.307L83.1733 94.9591L72.6381 85.307L71.1132 84.0295L60.0234 87.4361L76.5195 102.766L83.1733 95.2429L89.6886 102.766L106.323 87.4361L95.0948 84.0295L93.57 85.307Z" fill="#E08344"/>
<path d="M92.5996 72.9581C90.9361 72.9581 90.5202 72.9581 88.4409 72.8162H86.3616V71.1129H88.4409C98.0058 71.3968 101.194 71.5387 104.105 68.9838C107.155 66.4288 106.6 59.8995 106.6 59.7575L108.264 59.6156C108.264 59.8995 108.957 67.1385 105.214 70.2612C102.442 72.5323 98.8376 72.9581 92.5996 72.9581Z" fill="white"/>
<path d="M90.243 74.8034H84.5595C83.7278 74.8034 83.0347 74.0936 83.0347 73.242V71.1129C83.0347 70.2612 83.7278 69.5515 84.5595 69.5515H90.243C91.0747 69.5515 91.7679 70.2612 91.7679 71.1129V73.242C91.9065 74.0936 91.2134 74.8034 90.243 74.8034Z" fill="#448FFC"/>
<path d="M45.0522 99.7852H121.156C123.79 99.7852 125.869 102.056 125.592 104.753L122.819 148.755H43.5274L40.755 104.753C40.4777 102.056 42.4184 99.7852 45.0522 99.7852Z" fill="#EFEEED"/>
<path d="M88.1637 137.826C88.1637 135.554 86.7775 133.709 84.8367 133V136.974C84.8367 137.826 84.2823 138.677 83.3119 138.677C82.3415 138.819 81.3712 137.967 81.3712 136.974V133C79.2919 133.709 77.9056 135.838 78.0443 138.251C78.1829 140.239 79.5691 141.942 81.3712 142.652V147.903H84.6981V142.652C86.7775 141.942 88.1637 140.097 88.1637 137.826Z" fill="#80B2F9"/>
<path d="M97.7286 141.8H101.056V134.135H97.7286C97.3127 132.716 96.8969 131.296 96.0651 130.161L98.4217 127.748L93.1541 122.212L90.7975 124.625C89.5499 123.915 88.3023 123.347 86.9161 122.922V119.515H79.4305V122.922C78.0443 123.347 76.7967 123.773 75.5491 124.625L73.1925 122.212L67.9248 127.748L70.2814 130.161C69.5883 131.438 69.0338 132.716 68.6179 134.135H65.291V141.8H68.6179C68.8952 143.077 69.4497 144.213 70.0042 145.348C70.0042 145.49 70.1428 145.632 70.2814 145.774L67.9248 148.187L71.9449 152.304H74.4401L75.5491 151.168C76.2422 151.594 77.0739 152.02 77.767 152.304H88.5795C89.4113 152.02 90.1044 151.594 90.7975 151.168L91.9065 152.304H94.4017L98.5603 148.187L96.2038 145.774C96.3424 145.632 96.3424 145.49 96.481 145.206C97.0355 144.213 97.4513 143.077 97.7286 141.8ZM84.8367 146.342C84.2822 146.484 83.7278 146.484 83.1733 146.484C82.6188 146.484 82.0643 146.484 81.5098 146.342C80.6781 146.2 79.8463 145.774 79.0146 145.348C76.5194 143.929 74.8559 141.09 74.8559 137.967C74.8559 133.283 78.5987 129.451 83.1733 129.451C87.7478 129.451 91.4906 133.283 91.4906 137.967C91.4906 141.09 89.8271 143.787 87.3319 145.348C86.6388 145.774 85.6685 146.058 84.8367 146.342Z" fill="#80B2F9"/>
<path d="M140.424 148.755C140.424 149.749 140.008 150.6 139.454 151.31C138.899 152.02 137.929 152.304 136.959 152.304H29.3879C27.4472 152.304 25.9224 150.742 25.9224 148.755C25.9224 147.761 26.3382 146.91 26.8927 146.2C27.4472 145.49 28.4176 145.207 29.3879 145.207H136.959C138.899 145.348 140.424 146.91 140.424 148.755Z" fill="#448FFC"/>
<path d="M103.828 29.6659C102.165 33.4983 99.8079 36.9049 97.0355 39.8857C90.1044 47.4086 80.2622 52.0927 69.3111 52.0927C65.5683 52.0927 61.9641 51.5249 58.4985 50.5313C59.053 33.2144 70.2814 22.5688 84.4209 22.1429C84.6981 22.1429 84.9754 22.1429 85.2526 22.1429C92.5996 22.1429 98.9762 24.8398 103.828 29.6659Z" fill="#FFAC5A"/>
<path d="M106.878 46.9828C101.471 45.7053 96.4811 43.2923 92.3224 39.8857C95.0948 36.9049 97.4514 33.4983 99.1149 29.6659C103.135 33.9241 106.046 39.7438 106.878 46.9828Z" fill="#FFAC5A"/>
</svg>
