<svg width="185" height="185" viewBox="0 0 185 185" fill="none" xmlns="http://www.w3.org/2000/svg">
<path d="M93 158C128.899 158 158 128.899 158 93C158 57.1015 128.899 28 93 28C57.1015 28 28 57.1015 28 93C28 128.899 57.1015 158 93 158Z" fill="#84DBFF"/>
<path d="M136.65 105.713L140.213 102.15C145.262 97.101 145.262 88.899 140.213 83.8496L136.65 80.2868C134.215 77.8519 132.857 74.571 132.857 71.1364V66.0871C132.857 58.9359 127.064 53.1432 119.913 53.1432H114.864C111.429 53.1432 108.148 51.7848 105.713 49.3498L102.15 45.787C97.101 40.7377 88.899 40.7377 83.8496 45.787L80.2868 49.3498C77.8519 51.7848 74.571 53.1432 71.1364 53.1432H66.0871C58.9359 53.1432 53.1432 58.9359 53.1432 66.0871V71.1364C53.1432 74.571 51.7848 77.8519 49.3498 80.2868L45.787 83.8496C40.7377 88.899 40.7377 97.101 45.787 102.15L49.3498 105.713C51.7848 108.148 53.1432 111.429 53.1432 114.864V119.913C53.1432 127.064 58.9359 132.857 66.0871 132.857H71.1364C74.571 132.857 77.8519 134.215 80.2868 136.65L83.8496 140.213C88.899 145.262 97.101 145.262 102.15 140.213L105.713 136.65C108.148 134.215 111.429 132.857 114.864 132.857H119.913C127.064 132.857 132.857 127.064 132.857 119.913V114.864C132.857 111.429 134.215 108.148 136.65 105.713Z" fill="white"/>
<path d="M137 93C137 96.2189 135.754 99.256 133.47 101.54L130.484 104.526C128.641 106.369 127.655 108.783 127.655 111.353V115.584C127.655 122.229 122.255 127.655 115.584 127.655H111.353C108.783 127.655 106.343 128.667 104.526 130.484L101.54 133.47C99.256 135.754 96.2189 137 93 137C89.7552 137 86.744 135.754 84.4596 133.47L81.4484 130.484C79.6313 128.667 77.2171 127.655 74.6212 127.655H70.4159C63.7705 127.655 58.3451 122.229 58.3451 115.584V111.353C58.3451 108.757 57.3327 106.343 55.5156 104.526L52.5304 101.54C50.272 99.282 49 96.2189 49 93C49 89.7811 50.246 86.744 52.5304 84.4596L55.5156 81.4743C57.3587 79.6572 58.3451 77.2171 58.3451 74.6472V70.4159C58.3451 63.7705 63.7705 58.3451 70.4159 58.3451H74.6472C77.2431 58.3451 79.6572 57.3327 81.4743 55.5156L84.4596 52.5304C86.744 50.246 89.7811 49 93 49C96.2189 49 99.256 50.246 101.54 52.5304L104.526 55.5156C106.343 57.3327 108.783 58.3451 111.353 58.3451H115.584C122.255 58.3451 127.655 63.7445 127.655 70.4159V74.6472C127.655 77.2171 128.667 79.6572 130.484 81.4743L133.47 84.4596C135.754 86.744 137 89.7811 137 93Z" fill="#FF7058"/>
<path d="M75.7782 90.8892H70.0118V77.7347H75.1346C76.0356 77.7347 76.7821 77.8377 77.4514 78.0437C78.095 78.2496 78.5841 78.5328 78.9188 78.9189C79.5109 79.5882 79.794 80.3605 79.794 81.21C79.794 82.2397 79.4594 83.012 78.7901 83.5011C78.5584 83.6813 78.4039 83.7842 78.3267 83.8357C78.2495 83.8872 78.0693 83.9644 77.8633 84.0417C78.6871 84.2219 79.3307 84.5823 79.8198 85.1486C80.3089 85.7149 80.5406 86.41 80.5406 87.2338C80.5406 88.1605 80.2316 88.9585 79.5881 89.6536C78.8415 90.5031 77.5802 90.8892 75.7782 90.8892ZM72.9465 83.0635H74.3366C75.1604 83.0635 75.7524 82.9862 76.1643 82.806C76.5505 82.6258 76.7564 82.2397 76.7564 81.6734C76.7564 81.0813 76.5762 80.6951 76.2158 80.5149C75.8554 80.3347 75.2376 80.2318 74.3623 80.2318H72.9465V83.0635ZM72.9465 88.4179H74.9544C75.8039 88.4179 76.4217 88.3149 76.8336 88.109C77.2455 87.9031 77.4514 87.4912 77.4514 86.8991C77.4514 86.2813 77.2198 85.8951 76.7821 85.6892C76.3445 85.4833 75.6237 85.406 74.6455 85.406H72.9208V88.4179H72.9465Z" fill="white"/>
<path d="M92.4593 77.7604V80.3861H85.9207V83.0891H91.8158V85.5861H85.9207V88.3148H92.6653V90.9148H82.9861V77.7604H92.4593Z" fill="white"/>
<path d="M98.3544 80.3862C98.0712 80.6179 97.9425 80.9268 97.9425 81.3129C97.9425 81.6991 98.1227 82.008 98.4573 82.2139C98.792 82.4456 99.59 82.703 100.851 83.0119C102.087 83.3208 103.065 83.7842 103.76 84.402C104.455 85.0199 104.79 85.9208 104.79 87.105C104.79 88.2892 104.352 89.2416 103.477 89.9624C102.602 90.709 101.418 91.0694 99.9761 91.0694C97.891 91.0694 96.0118 90.2971 94.3643 88.7525L96.1148 86.6159C97.5306 87.8515 98.8435 88.4694 100.053 88.4694C100.594 88.4694 101.006 88.3406 101.315 88.109C101.624 87.8773 101.778 87.5684 101.778 87.1565C101.778 86.7703 101.624 86.4357 101.289 86.204C100.954 85.9723 100.311 85.7406 99.3583 85.509C97.8395 85.1486 96.7068 84.6595 96.0118 84.0931C95.291 83.501 94.9563 82.6001 94.9563 81.3387C94.9563 80.103 95.394 79.1248 96.295 78.4555C97.1959 77.7862 98.3029 77.4515 99.6415 77.4515C100.517 77.4515 101.392 77.606 102.267 77.9149C103.142 78.2238 103.915 78.6357 104.558 79.202L103.065 81.3387C101.933 80.4634 100.748 80.0515 99.5385 80.0515C99.0237 80.0258 98.6375 80.1545 98.3544 80.3862Z" fill="white"/>
<path d="M112.719 80.2833V90.8892H109.784V80.2833H106.052V77.7347H116.426V80.2833H112.719Z" fill="white"/>
<path d="M74.0277 96.4238C74.9544 97.196 75.4178 98.4059 75.4178 100.028C75.4178 101.65 74.9544 102.834 74.002 103.58C73.0495 104.327 71.6079 104.713 69.6772 104.713H67.9267V108.368H64.9921V95.2139H69.6257C71.6594 95.2396 73.1267 95.6257 74.0277 96.4238ZM71.8911 101.598C72.2515 101.212 72.4059 100.62 72.4059 99.8733C72.4059 99.1267 72.1742 98.5861 71.7109 98.2515C71.2475 97.9426 70.5525 97.7624 69.5742 97.7624H67.901V102.19H69.8832C70.8614 102.19 71.5307 101.984 71.8911 101.598Z" fill="white"/>
<path d="M88.392 99.6159C88.392 101.727 87.5683 103.091 85.895 103.709L89.2158 108.42H85.6118L82.7029 104.224H80.6435V108.42H77.7089V95.2654H82.7029C84.7366 95.2654 86.2039 95.6 87.0792 96.2951C87.9544 96.9644 88.392 98.0713 88.392 99.6159ZM84.8396 101.16C85.2 100.826 85.3801 100.311 85.3801 99.6159C85.3801 98.8951 85.1999 98.4317 84.8138 98.1486C84.4277 97.8911 83.7841 97.7624 82.8316 97.7624H80.6435V101.65H82.7801C83.8099 101.65 84.4792 101.495 84.8396 101.16Z" fill="white"/>
<path d="M91.3783 95.2396H94.313V108.394H91.3783V95.2396Z" fill="white"/>
<path d="M103.606 105.794C105.048 105.794 106.232 105.228 107.133 104.095L109.012 106.026C107.519 107.699 105.768 108.549 103.735 108.549C101.701 108.549 100.053 107.905 98.7406 106.618C97.4277 105.331 96.7842 103.735 96.7842 101.778C96.7842 99.8219 97.4535 98.2001 98.7921 96.8872C100.131 95.5744 101.752 94.9308 103.683 94.9308C105.846 94.9308 107.648 95.7546 109.089 97.4021L107.261 99.4615C106.335 98.3031 105.176 97.7367 103.812 97.7367C102.705 97.7367 101.752 98.0971 100.98 98.8179C100.208 99.5387 99.7961 100.517 99.7961 101.727C99.7961 102.962 100.156 103.941 100.903 104.661C101.65 105.434 102.551 105.794 103.606 105.794Z" fill="white"/>
<path d="M120.802 95.2396V97.8654H114.263V100.568H120.158V103.065H114.263V105.794H121.008V108.394H111.329V95.2396H120.802Z" fill="white"/>
</svg>
