<svg width="220" height="220" viewBox="0 0 220 220" fill="none" xmlns="http://www.w3.org/2000/svg">
<path d="M50.2985 145.444C54.6225 145.444 58.1285 141.688 58.1285 137.054V114.59H42.4678V137.054C42.468 141.688 45.974 145.444 50.2985 145.444Z" fill="#54B7FA"/>
<path d="M45.2646 133.469C45.2646 133.8 45.3297 134.127 45.4561 134.432C45.5826 134.738 45.768 135.015 46.0018 135.249C46.2355 135.482 46.5129 135.668 46.8183 135.794C47.1237 135.921 47.451 135.986 47.7815 135.986C48.112 135.986 48.4393 135.921 48.7447 135.794C49.0501 135.668 49.3276 135.482 49.5613 135.249C49.795 135.015 49.9804 134.738 50.1069 134.432C50.2334 134.127 50.2985 133.8 50.2985 133.469C50.2985 133.138 50.2334 132.811 50.1069 132.506C49.9804 132.2 49.795 131.923 49.5613 131.689C49.3276 131.455 49.0501 131.27 48.7447 131.144C48.4393 131.017 48.112 130.952 47.7815 130.952C47.451 130.952 47.1237 131.017 46.8183 131.144C46.5129 131.27 46.2355 131.455 46.0018 131.689C45.768 131.923 45.5826 132.2 45.4561 132.506C45.3297 132.811 45.2646 133.138 45.2646 133.469Z" fill="#348EE4"/>
<path d="M47.3552 124.472C47.3551 124.68 47.396 124.886 47.4756 125.078C47.5551 125.27 47.6717 125.445 47.8187 125.592C47.9658 125.739 48.1404 125.856 48.3325 125.936C48.5247 126.015 48.7306 126.056 48.9386 126.056C49.1466 126.056 49.3525 126.015 49.5446 125.936C49.7368 125.856 49.9114 125.739 50.0584 125.592C50.2054 125.445 50.3221 125.27 50.4016 125.078C50.4811 124.886 50.522 124.68 50.522 124.472C50.522 124.264 50.4811 124.058 50.4016 123.866C50.3221 123.674 50.2054 123.499 50.0584 123.352C49.9114 123.205 49.7368 123.088 49.5446 123.009C49.3525 122.929 49.1466 122.888 48.9386 122.888C48.7306 122.888 48.5247 122.929 48.3325 123.009C48.1404 123.088 47.9658 123.205 47.8187 123.352C47.6717 123.499 47.5551 123.674 47.4756 123.866C47.396 124.058 47.3551 124.264 47.3552 124.472Z" fill="#348EE4"/>
<path d="M46.5582 121.741C46.5582 119.482 44.7269 117.651 42.468 117.651V125.831C44.7269 125.831 46.5582 124.001 46.5582 121.741Z" fill="#348EE4"/>
<path d="M45.6838 147.872C40.5428 147.872 36.3606 143.439 36.3606 137.989V109.652H39.3465V137.99C39.3465 141.793 42.1893 144.887 45.6836 144.887C49.1779 144.887 52.0211 141.793 52.0211 137.99V109.362H55.007V137.99C55.0075 143.439 50.8249 147.872 45.6838 147.872Z" fill="black"/>
<path d="M58.1127 109.623C58.1127 111.094 57.167 112.288 56.0029 112.288H52.2519C52.2519 112.288 50.9679 112.408 50.9811 109.623C50.9811 109.623 50.7468 107.151 52.2519 106.956H56.0029C57.1668 106.956 58.1127 108.149 58.1127 109.623ZM33.222 109.623C33.222 111.094 34.1672 112.289 35.3313 112.289H39.0824C39.0824 112.289 40.3631 112.172 40.3532 109.623C40.3532 109.623 40.5597 106.956 39.0824 106.956H35.3313C34.1675 106.956 33.222 108.15 33.222 109.623Z" fill="black"/>
<path d="M203.544 186.153H186.659C186.263 186.153 185.884 185.996 185.604 185.716C185.324 185.436 185.166 185.056 185.166 184.66C185.166 184.264 185.324 183.885 185.604 183.605C185.884 183.325 186.263 183.167 186.659 183.167H203.544C203.94 183.167 204.32 183.325 204.6 183.605C204.88 183.885 205.037 184.264 205.037 184.66C205.037 185.056 204.88 185.436 204.6 185.716C204.32 185.996 203.94 186.153 203.544 186.153Z" fill="black"/>
<path d="M175.752 186.153H170.928C170.532 186.153 170.152 185.996 169.872 185.716C169.592 185.436 169.435 185.056 169.435 184.66C169.435 184.264 169.592 183.885 169.872 183.605C170.152 183.325 170.532 183.167 170.928 183.167H175.752C176.148 183.167 176.528 183.325 176.808 183.605C177.088 183.885 177.245 184.264 177.245 184.66C177.245 185.056 177.088 185.436 176.808 185.716C176.528 185.996 176.148 186.153 175.752 186.153Z" fill="black"/>
<path d="M160.021 186.153H38.9955C38.5995 186.153 38.2198 185.996 37.9398 185.716C37.6598 185.436 37.5025 185.056 37.5025 184.66C37.5025 184.264 37.6598 183.885 37.9398 183.605C38.2198 183.325 38.5995 183.167 38.9955 183.167H160.021C160.417 183.167 160.797 183.325 161.077 183.605C161.357 183.885 161.514 184.264 161.514 184.66C161.514 185.056 161.357 185.436 161.077 185.716C160.797 185.996 160.417 186.153 160.021 186.153Z" fill="black"/>
<path d="M29.2426 186.153H21.4815C21.0855 186.153 20.7058 185.996 20.4258 185.716C20.1458 185.436 19.9885 185.056 19.9885 184.66C19.9885 184.264 20.1458 183.885 20.4258 183.605C20.7058 183.325 21.0855 183.167 21.4815 183.167H29.2426C29.6386 183.167 30.0183 183.325 30.2983 183.605C30.5783 183.885 30.7356 184.264 30.7356 184.66C30.7356 185.056 30.5783 185.436 30.2983 185.716C30.0183 185.996 29.6386 186.153 29.2426 186.153Z" fill="black"/>
<path d="M18.2599 89.4926C16.3796 89.4926 14.8501 87.9633 14.8501 86.0834C14.8501 84.2033 16.3796 82.6736 18.2599 82.6736C20.1398 82.6736 21.6693 84.2033 21.6693 86.0834C21.6691 87.9633 20.1396 89.4926 18.2599 89.4926ZM18.2599 83.669C16.9289 83.669 15.8455 84.7521 15.8455 86.0834C15.8455 87.4143 16.9289 88.4972 18.2599 88.4972C19.591 88.4972 20.6739 87.4145 20.6739 86.0834C20.6739 84.7519 19.591 83.669 18.2599 83.669Z" fill="#FD5C1E"/>
<path d="M21.1808 61.1826C21.0293 61.1827 20.8793 61.1529 20.7393 61.0949C20.5994 61.0369 20.4722 60.952 20.3651 60.8448C20.258 60.7377 20.173 60.6105 20.1151 60.4706C20.0572 60.3306 20.0274 60.1806 20.0274 60.0291V58.8755C20.0274 58.5418 19.8948 58.2217 19.6588 57.9857C19.4228 57.7497 19.1027 57.6171 18.769 57.6171C18.4352 57.6171 18.1151 57.7497 17.8791 57.9857C17.6431 58.2217 17.5105 58.5418 17.5105 58.8755V60.0291C17.5105 60.1806 17.4807 60.3306 17.4227 60.4706C17.3647 60.6106 17.2797 60.7378 17.1726 60.8449C17.0654 60.952 16.9382 61.037 16.7982 61.095C16.6583 61.1529 16.5082 61.1827 16.3567 61.1826H15.2029C14.8692 61.1828 14.5493 61.3155 14.3133 61.5515C14.0774 61.7874 13.9448 62.1074 13.9447 62.4411C13.9448 62.7748 14.0774 63.0948 14.3133 63.3308C14.5493 63.5668 14.8692 63.6994 15.2029 63.6996H16.3567C16.5082 63.6995 16.6583 63.7293 16.7983 63.7872C16.9383 63.8452 17.0655 63.9301 17.1727 64.0373C17.2798 64.1444 17.3648 64.2716 17.4228 64.4116C17.4807 64.5516 17.5105 64.7016 17.5105 64.8532V66.0069C17.5166 66.3366 17.6519 66.6507 17.8873 66.8817C18.1226 67.1127 18.4392 67.2421 18.769 67.2421C19.0987 67.2421 19.4153 67.1127 19.6506 66.8817C19.886 66.6507 20.0213 66.3366 20.0274 66.0069V64.8532C20.0274 64.7017 20.0572 64.5517 20.1152 64.4117C20.1731 64.2718 20.2581 64.1446 20.3652 64.0375C20.4723 63.9304 20.5994 63.8454 20.7394 63.7874C20.8793 63.7294 21.0293 63.6996 21.1808 63.6996H22.3345C22.6642 63.6934 22.9783 63.5581 23.2093 63.3228C23.4403 63.0875 23.5697 62.7709 23.5697 62.4411C23.5697 62.1114 23.4403 61.7948 23.2093 61.5594C22.9783 61.3241 22.6642 61.1888 22.3345 61.1826H21.1808Z" fill="#2BA9FC"/>
<path d="M59.9468 54.4133C59.627 54.4131 59.3204 54.286 59.0943 54.0599C58.8682 53.8338 58.7411 53.5272 58.7409 53.2074V51.9989C58.7409 51.8259 58.7068 51.6547 58.6406 51.495C58.5743 51.3353 58.4772 51.1902 58.3548 51.0681C58.2324 50.9459 58.0871 50.8491 57.9273 50.7832C57.7674 50.7173 57.5962 50.6835 57.4233 50.6838C57.0744 50.6837 56.7397 50.8222 56.4929 51.0688C56.2461 51.3154 56.1073 51.65 56.1071 51.9989V53.2074C56.1072 53.3658 56.0761 53.5226 56.0155 53.6689C55.9549 53.8152 55.8661 53.9482 55.7541 54.0602C55.6422 54.1721 55.5092 54.261 55.3629 54.3216C55.2166 54.3822 55.0598 54.4133 54.9015 54.4133H53.6951C53.5221 54.4132 53.3509 54.4472 53.191 54.5134C53.0312 54.5795 52.886 54.6765 52.7637 54.7988C52.6413 54.9211 52.5443 55.0663 52.4781 55.226C52.4119 55.3858 52.3778 55.5571 52.3778 55.7301C52.3778 55.903 52.4119 56.0743 52.4781 56.2341C52.5443 56.3939 52.6413 56.5391 52.7637 56.6614C52.886 56.7836 53.0312 56.8806 53.191 56.9468C53.3509 57.0129 53.5221 57.0469 53.6951 57.0468H54.9015C55.0598 57.0468 55.2166 57.078 55.3629 57.1386C55.5092 57.1993 55.6421 57.2881 55.7541 57.4001C55.866 57.512 55.9548 57.645 56.0154 57.7913C56.076 57.9376 56.1072 58.0944 56.1071 58.2528V59.4589C56.1073 59.8079 56.246 60.1425 56.4928 60.3892C56.7396 60.636 57.0743 60.7747 57.4233 60.7748C57.5962 60.775 57.7675 60.7411 57.9273 60.6751C58.0872 60.609 58.2324 60.5121 58.3548 60.3899C58.4772 60.2677 58.5743 60.1226 58.6405 59.9628C58.7068 59.8031 58.7409 59.6318 58.7409 59.4589V58.2528C58.741 57.933 58.8681 57.6263 59.0942 57.4002C59.3204 57.1741 59.627 57.047 59.9468 57.0468H61.1545C61.5038 57.0467 61.8388 56.9078 62.0858 56.6607C62.3327 56.4136 62.4715 56.0785 62.4715 55.7292C62.4715 55.0026 61.88 54.4133 61.1545 54.4133H59.9468Z" fill="#FD5C1E"/>
<path d="M42.7269 35.7554C42.5538 35.7556 42.3823 35.7216 42.2223 35.6554C42.0623 35.5892 41.9169 35.4922 41.7945 35.3698C41.672 35.2474 41.5749 35.1021 41.5086 34.9421C41.4424 34.7821 41.4083 34.6107 41.4084 34.4375V33.119C41.4081 32.7376 41.2564 32.3719 40.9866 32.1023C40.7169 31.8327 40.3511 31.6811 39.9697 31.681C39.5884 31.6813 39.2227 31.8329 38.953 32.1025C38.6833 32.3721 38.5316 32.7377 38.5311 33.119V34.4375C38.5312 34.6106 38.4973 34.782 38.4311 34.9419C38.365 35.1019 38.2679 35.2472 38.1456 35.3696C38.0232 35.492 37.8779 35.5891 37.718 35.6553C37.5581 35.7215 37.3867 35.7555 37.2137 35.7554H35.8947C35.7057 35.7555 35.5186 35.7928 35.344 35.8652C35.1694 35.9376 35.0108 36.0437 34.8772 36.1774C34.7437 36.3111 34.6378 36.4699 34.5656 36.6445C34.4934 36.8192 34.4563 37.0064 34.4565 37.1954C34.4565 37.3842 34.4938 37.5712 34.566 37.7456C34.6383 37.9201 34.7443 38.0785 34.8778 38.212C35.0114 38.3455 35.1699 38.4514 35.3444 38.5236C35.5189 38.5958 35.7059 38.633 35.8947 38.6329H37.2137C37.3867 38.6328 37.5581 38.6669 37.718 38.7331C37.8779 38.7993 38.0232 38.8963 38.1456 39.0187C38.2679 39.1411 38.365 39.2865 38.4311 39.4464C38.4973 39.6063 38.5312 39.7777 38.5311 39.9508V41.2704C38.5311 42.0636 39.1761 42.7075 39.9697 42.7075C40.3511 42.7076 40.7168 42.5563 40.9866 42.2868C41.2564 42.0173 41.4081 41.6517 41.4084 41.2704V39.9508C41.4083 39.7776 41.4424 39.6062 41.5086 39.4462C41.5749 39.2863 41.672 39.1409 41.7945 39.0185C41.9169 38.8962 42.0623 38.7991 42.2223 38.7329C42.3823 38.6668 42.5538 38.6328 42.7269 38.6329H44.045C44.2339 38.6331 44.4209 38.596 44.5954 38.5238C44.7699 38.4516 44.9285 38.3457 45.0621 38.2122C45.1956 38.0787 45.3016 37.9202 45.3738 37.7457C45.4461 37.5712 45.4833 37.3842 45.4832 37.1954C45.4834 37.0064 45.4464 36.8192 45.3742 36.6445C45.3021 36.4698 45.1962 36.311 45.0626 36.1773C44.929 36.0435 44.7704 35.9374 44.5958 35.8651C44.4212 35.7927 44.234 35.7554 44.045 35.7554H42.7269Z" fill="#FED62C"/>
<path d="M37.0654 64.5386C36.9724 64.5385 36.8804 64.5568 36.7945 64.5923C36.7086 64.6279 36.6305 64.6801 36.5648 64.7458C36.4991 64.8116 36.447 64.8897 36.4116 64.9757C36.3761 65.0616 36.358 65.1537 36.3582 65.2467L36.3566 68.3576C36.3566 68.7471 36.6745 69.0637 37.0656 69.065C37.2529 69.0644 37.4324 68.9897 37.5648 68.8571C37.6971 68.7245 37.7715 68.5449 37.7717 68.3576V65.2467C37.772 65.1538 37.7539 65.0617 37.7185 64.9758C37.6831 64.8899 37.6311 64.8119 37.5655 64.7461C37.4999 64.6803 37.4219 64.6281 37.3361 64.5925C37.2503 64.5569 37.1583 64.5386 37.0654 64.5386ZM37.0654 75.2877C36.8778 75.2877 36.6978 75.3621 36.565 75.4946C36.4322 75.6271 36.3573 75.8068 36.3569 75.9945L36.3584 79.106C36.3583 79.1989 36.3766 79.2909 36.4121 79.3767C36.4476 79.4625 36.4997 79.5405 36.5654 79.6062C36.6311 79.6719 36.7091 79.724 36.7949 79.7595C36.8807 79.795 36.9727 79.8133 37.0656 79.8132C37.1585 79.8133 37.2504 79.795 37.3362 79.7595C37.422 79.724 37.5 79.6719 37.5656 79.6062C37.6312 79.5405 37.6833 79.4625 37.7187 79.3767C37.7542 79.2908 37.7723 79.1989 37.7722 79.106V75.9945C37.7722 75.807 37.6977 75.6272 37.5652 75.4947C37.4326 75.3621 37.2529 75.2877 37.0654 75.2877ZM33.865 69.9759C33.9306 70.0417 34.0086 70.0938 34.0944 70.1294C34.1802 70.165 34.2722 70.1833 34.3651 70.1833C34.458 70.1833 34.55 70.165 34.6358 70.1294C34.7216 70.0938 34.7996 70.0417 34.8652 69.9759C34.9978 69.8433 35.0723 69.6635 35.0723 69.476C35.0723 69.2885 34.9978 69.1087 34.8652 68.9761L32.6646 66.7759C32.5991 66.7101 32.5213 66.6579 32.4355 66.6222C32.3498 66.5866 32.2579 66.5682 32.165 66.5682C32.0722 66.5682 31.9802 66.5866 31.8945 66.6222C31.8088 66.6579 31.7309 66.7101 31.6654 66.7759C31.5998 66.8416 31.5477 66.9195 31.5122 67.0052C31.4767 67.091 31.4584 67.1829 31.4584 67.2757C31.4584 67.3685 31.4767 67.4605 31.5122 67.5462C31.5477 67.632 31.5998 67.7099 31.6654 67.7755L33.865 69.9759ZM40.2649 74.3759C40.1994 74.3102 40.1216 74.2582 40.0359 74.2226C39.9502 74.1871 39.8584 74.1688 39.7656 74.1688C39.6728 74.1688 39.581 74.1871 39.4953 74.2226C39.4096 74.2582 39.3318 74.3102 39.2663 74.3759C39.1337 74.5086 39.0592 74.6885 39.0592 74.8761C39.0592 75.0637 39.1337 75.2436 39.2663 75.3763L41.4665 77.5763C41.5992 77.7083 41.7788 77.7825 41.966 77.7825C42.1532 77.7825 42.3329 77.7083 42.4656 77.5763C42.5313 77.5106 42.5834 77.4327 42.6189 77.3468C42.6545 77.261 42.6728 77.1691 42.6728 77.0762C42.6728 76.9833 42.6545 76.8913 42.6189 76.8055C42.5834 76.7197 42.5313 76.6417 42.4656 76.5761L40.2649 74.3759ZM33.9536 72.1757C33.9537 72.0829 33.9354 71.9909 33.8998 71.9052C33.8643 71.8194 33.8122 71.7415 33.7465 71.6759C33.6808 71.6103 33.6028 71.5583 33.517 71.5229C33.4312 71.4875 33.3392 71.4694 33.2464 71.4696H30.1355C30.0427 71.4694 29.9508 71.4876 29.865 71.523C29.7792 71.5584 29.7012 71.6104 29.6355 71.676C29.5698 71.7416 29.5177 71.8195 29.4822 71.9052C29.4466 71.9909 29.4283 72.0829 29.4283 72.1757C29.4284 72.3633 29.5029 72.5432 29.6355 72.6759C29.7681 72.8087 29.9479 72.8833 30.1355 72.8836H33.2464C33.3393 72.8836 33.4314 72.8652 33.5172 72.8297C33.6031 72.7941 33.681 72.7419 33.7467 72.6762C33.8124 72.6104 33.8645 72.5324 33.9 72.4465C33.9355 72.3606 33.9537 72.2686 33.9536 72.1757ZM43.9944 71.4696H40.8824C40.7897 71.4696 40.6978 71.4879 40.6122 71.5235C40.5265 71.559 40.4487 71.6111 40.3832 71.6768C40.3177 71.7425 40.2658 71.8204 40.2304 71.9062C40.1951 71.9919 40.177 72.0838 40.1772 72.1766C40.1769 72.2695 40.1951 72.3616 40.2305 72.4475C40.266 72.5334 40.3181 72.6114 40.3838 72.6772C40.4495 72.7429 40.5276 72.795 40.6135 72.8304C40.6994 72.8659 40.7915 72.884 40.8844 72.8838H43.9944C44.0874 72.8838 44.1794 72.8655 44.2653 72.8299C44.3511 72.7943 44.4292 72.7422 44.4949 72.6764C44.5606 72.6107 44.6127 72.5327 44.6483 72.4468C44.6838 72.3609 44.7021 72.2688 44.7021 72.1759C44.7023 72.083 44.6841 71.9909 44.6487 71.905C44.6132 71.8191 44.561 71.7411 44.4952 71.6755C44.4295 71.6098 44.3513 71.5578 44.2654 71.5225C44.1794 71.4871 44.0873 71.4692 43.9944 71.4696ZM33.865 74.3759L31.6652 76.5761C31.5326 76.7087 31.4581 76.8886 31.4581 77.0762C31.4581 77.2637 31.5326 77.4436 31.6652 77.5763C31.9424 77.8513 32.3883 77.8541 32.6644 77.5763L34.865 75.3763C34.9977 75.2437 35.0722 75.0638 35.0723 74.8763C35.0723 74.6887 34.9978 74.5088 34.8652 74.3761C34.7326 74.2434 34.5527 74.1689 34.3651 74.1688C34.1776 74.1688 33.9977 74.2433 33.865 74.3759ZM40.2658 69.9759L42.4656 67.7755C42.598 67.6429 42.6723 67.4631 42.6723 67.2757C42.6723 67.0883 42.598 66.9086 42.4656 66.7759C42.4001 66.7101 42.3223 66.6579 42.2365 66.6222C42.1508 66.5866 42.0589 66.5682 41.966 66.5682C41.8732 66.5682 41.7812 66.5866 41.6955 66.6222C41.6098 66.6579 41.5319 66.7101 41.4665 66.7759L39.2663 68.9761C39.1337 69.1087 39.0592 69.2885 39.0592 69.476C39.0592 69.6635 39.1337 69.8433 39.2663 69.9759C39.3318 70.0418 39.4096 70.094 39.4954 70.1297C39.5812 70.1653 39.6732 70.1837 39.766 70.1837C39.8589 70.1837 39.9509 70.1653 40.0367 70.1297C40.1224 70.094 40.2003 70.0418 40.2658 69.9759Z" fill="#FED62C"/>
<path d="M39.3628 100.394C39.3627 100.596 39.4025 100.796 39.4798 100.983C39.5571 101.17 39.6705 101.339 39.8134 101.482C39.9564 101.625 40.1261 101.739 40.3128 101.816C40.4996 101.894 40.6998 101.933 40.902 101.933C41.1042 101.933 41.3044 101.894 41.4911 101.816C41.6779 101.739 41.8476 101.625 41.9905 101.482C42.1335 101.339 42.2468 101.17 42.3242 100.983C42.4015 100.796 42.4412 100.596 42.4412 100.394C42.4412 100.191 42.4015 99.9912 42.3242 99.8044C42.2468 99.6176 42.1335 99.4479 41.9905 99.3049C41.8476 99.1619 41.6779 99.0485 41.4911 98.9711C41.3044 98.8937 41.1042 98.8539 40.902 98.8539C40.6998 98.8539 40.4996 98.8937 40.3128 98.9711C40.1261 99.0485 39.9564 99.1619 39.8134 99.3049C39.6705 99.4479 39.5571 99.6176 39.4798 99.8044C39.4025 99.9912 39.3627 100.191 39.3628 100.394Z" fill="#FD5C1E"/>
<path d="M31.801 50.6837C31.8009 50.8859 31.7611 51.0862 31.6836 51.273C31.6062 51.4598 31.4928 51.6295 31.3497 51.7725C31.2067 51.9155 31.0369 52.0289 30.85 52.1062C30.6632 52.1836 30.4629 52.2233 30.2607 52.2233C30.0586 52.2233 29.8584 52.1835 29.6716 52.1061C29.4849 52.0287 29.3152 51.9153 29.1723 51.7723C29.0294 51.6293 28.9161 51.4596 28.8388 51.2728C28.7616 51.086 28.7219 50.8858 28.722 50.6837C28.7219 50.4816 28.7617 50.2814 28.839 50.0947C28.9163 49.9079 29.0296 49.7382 29.1725 49.5953C29.3154 49.4523 29.485 49.3389 29.6717 49.2615C29.8584 49.1842 30.0586 49.1443 30.2607 49.1443C30.669 49.1443 31.0607 49.3064 31.3495 49.5951C31.6384 49.8838 31.8007 50.2753 31.801 50.6837Z" fill="#FD5C1E"/>
<path d="M34.5187 94.4051C34.5187 94.7009 34.4012 94.9845 34.1922 95.1937C33.9832 95.403 33.6997 95.5207 33.4039 95.521C33.2573 95.5211 33.1122 95.4923 32.9767 95.4362C32.8413 95.3802 32.7182 95.298 32.6145 95.1943C32.5109 95.0907 32.4286 94.9677 32.3725 94.8322C32.3164 94.6968 32.2875 94.5517 32.2875 94.4051C32.2879 94.1092 32.4057 93.8256 32.615 93.6166C32.8243 93.4075 33.1081 93.29 33.4039 93.29C33.6995 93.2904 33.9829 93.4081 34.1918 93.6171C34.4008 93.8261 34.5184 94.1095 34.5187 94.4051Z" fill="#FDD72C"/>
<path d="M53.0774 93.437C50.7567 93.437 48.8686 91.5492 48.8686 89.2287C48.8686 86.9073 50.7567 85.0186 53.0774 85.0186C55.3982 85.0186 57.2858 86.9073 57.2858 89.2287C57.2858 91.549 55.3982 93.437 53.0774 93.437ZM53.0774 86.5115C51.58 86.5115 50.3616 87.7304 50.3616 89.2287C50.3616 90.7258 51.58 91.944 53.0774 91.944C54.5748 91.944 55.7928 90.7258 55.7928 89.2287C55.7928 87.7304 54.575 86.5115 53.0774 86.5115Z" fill="#2BA9FC"/>
<path d="M79.6724 96.8224C76.8642 105.564 77.2001 114.567 80.0526 122.645C81.5952 127.014 84.1379 134.399 85.1993 139.042L86.5484 144.269L125.805 156.883L129.987 153.065C133.746 149.272 140.656 144.816 144.355 142.025C150.796 137.166 155.842 130.374 158.486 122.147C165.384 100.677 153.333 77.6036 131.57 70.6108C109.806 63.6178 86.5713 75.3531 79.6724 96.8224Z" fill="#FDD72C"/>
<path d="M89.6998 95.007C89.4201 95.0068 89.1461 94.928 88.909 94.7797C88.6719 94.6314 88.4812 94.4194 88.3586 94.168C88.2361 93.9166 88.1866 93.6358 88.2159 93.3577C88.2451 93.0795 88.3519 92.8151 88.524 92.5947C91.9567 88.202 96.1646 84.5665 101.031 81.7897C101.202 81.6926 101.389 81.63 101.584 81.6054C101.778 81.5808 101.976 81.5948 102.165 81.6465C102.354 81.6982 102.531 81.7867 102.686 81.9068C102.841 82.027 102.971 82.1764 103.068 82.3467C103.165 82.517 103.227 82.7047 103.252 82.8992C103.277 83.0937 103.263 83.2911 103.211 83.4802C103.159 83.6693 103.071 83.8464 102.951 84.0013C102.83 84.1562 102.681 84.2859 102.511 84.383C97.983 86.9664 94.0692 90.3479 90.8771 94.4333C90.7375 94.6122 90.5589 94.7569 90.3548 94.8563C90.1508 94.9558 89.9268 95.0073 89.6998 95.007ZM109.798 81.2572C109.436 81.2567 109.086 81.1243 108.813 80.8847C108.541 80.6452 108.366 80.3149 108.319 79.9553C108.273 79.5958 108.359 79.2317 108.561 78.9308C108.763 78.6299 109.068 78.4128 109.418 78.3201C110.542 78.0236 111.678 77.7722 112.822 77.5662C113.626 77.4197 114.41 77.9595 114.556 78.7717C114.626 79.1615 114.538 79.5631 114.312 79.8881C114.086 80.2132 113.74 80.4351 113.35 80.5051C112.284 80.6968 111.227 80.9311 110.18 81.2075C110.055 81.2403 109.927 81.257 109.798 81.2572Z" fill="white"/>
<path d="M126.915 70.2172C124.979 69.5954 123.001 69.116 120.995 68.7827C138.856 77.5637 148.115 98.1296 141.925 117.391C139.315 125.516 134.333 132.223 127.972 137.021C124.32 139.777 117.496 144.177 113.785 147.924L109.654 151.694L121.222 155.411L125.354 151.641C129.065 147.894 135.889 143.494 139.541 140.738C145.902 135.94 150.885 129.233 153.496 121.109C160.308 99.9077 148.407 77.1226 126.915 70.2172Z" fill="#F37C20"/>
<path d="M107.063 171.423L93.3463 167.016C88.0852 165.326 84.3896 160.189 85.2187 154.124L86.6155 144.291L125.772 156.873C125.772 156.873 123.609 160.849 121.18 165.678C118.232 171.54 112.324 173.114 107.063 171.423Z" fill="white"/>
<path d="M119.186 156.996L78.1931 144.273L76.5796 138.264C75.7646 134.861 73.9944 129.416 71.3088 122.042C68.14 113.346 67.9121 104.089 70.6488 95.2715V95.2718C77.5677 72.9834 101.568 60.5533 124.151 67.5621C135.087 70.9566 144.066 78.3504 149.432 88.3813C154.803 98.4194 155.914 109.896 152.562 120.697C149.99 128.978 144.994 136.156 138.114 141.454C137.07 142.258 135.769 143.2 134.39 144.197C130.923 146.706 126.608 149.827 124.017 152.495L123.963 152.547L119.186 156.996ZM80.6502 141.909L118.418 153.631L121.902 150.386C124.675 147.54 129.09 144.346 132.64 141.778C134 140.794 135.284 139.865 136.293 139.088C142.683 134.167 147.322 127.501 149.71 119.811C152.823 109.78 151.79 99.1178 146.799 89.7898C141.805 80.4553 133.447 73.5741 123.265 70.4139C102.256 63.8927 79.9305 75.4403 73.5006 96.1565V96.1567C70.9588 104.344 71.1711 112.942 74.1139 121.019C76.8774 128.606 78.6304 134.006 79.4736 137.528L80.6502 141.909Z" fill="black"/>
<path d="M100.379 171.367L86.6184 167.096C81.3414 165.457 77.5941 160.357 78.3629 154.285L79.6625 144.438L118.941 156.63C118.941 156.63 116.818 160.628 114.438 165.482C111.548 171.371 105.655 173.004 100.379 171.367Z" fill="white"/>
<path d="M104.239 173.462C102.837 173.462 101.391 173.244 99.9361 172.793L86.1758 168.522C79.8761 166.565 76.0547 160.634 76.8818 154.097L78.4142 142.487L121.105 155.739L120.26 157.331C120.239 157.37 118.12 161.365 115.778 166.139C113.488 170.807 109.132 173.462 104.239 173.462ZM100.822 169.941C104.73 171.154 110.291 170.542 113.097 164.824C114.299 162.377 115.53 159.944 116.787 157.525L80.9111 146.388L79.8434 154.48C79.2019 159.546 82.1694 164.15 87.061 165.67L100.822 169.941ZM149.393 158.791C149.18 158.791 148.969 158.746 148.775 158.658C148.581 158.57 148.408 158.441 148.267 158.281C148.127 158.12 148.023 157.931 147.961 157.727C147.9 157.523 147.883 157.308 147.912 157.097C148.739 151.008 139.732 148.745 139.641 148.723L139.592 148.711L125.853 144.879C125.475 144.77 125.155 144.516 124.962 144.173C124.77 143.829 124.722 143.423 124.828 143.043C124.933 142.664 125.185 142.342 125.527 142.147C125.87 141.952 126.275 141.9 126.655 142.003L140.371 145.828C144.431 146.822 151.817 150.53 150.871 157.499C150.822 157.856 150.646 158.184 150.374 158.422C150.102 158.659 149.754 158.79 149.393 158.791Z" fill="black"/>
<path d="M149.127 156.823C149.033 157.16 148.841 157.462 148.575 157.691C148.309 157.919 147.981 158.064 147.633 158.106C147.285 158.148 146.932 158.086 146.619 157.928C146.306 157.769 146.048 157.522 145.875 157.216C145.703 156.911 145.626 156.561 145.652 156.212C145.679 155.862 145.808 155.528 146.025 155.252C146.241 154.977 146.534 154.771 146.868 154.662C147.201 154.553 147.559 154.545 147.896 154.639C148.84 154.902 149.391 155.88 149.127 156.823ZM80.6639 136.959L72.6438 136.95C72.2439 136.904 62.7948 135.771 58.2807 129.999C56.3722 127.559 55.6203 124.671 56.0471 121.416C56.1544 120.598 56.905 120.024 57.7213 120.129C58.1139 120.181 58.47 120.386 58.7112 120.7C58.9524 121.014 59.0591 121.411 59.0077 121.803C58.6846 124.269 59.2163 126.348 60.6325 128.159C64.195 132.714 72.0483 133.861 72.9051 133.973H80.6639C80.86 133.973 81.0542 134.012 81.2354 134.087C81.4166 134.162 81.5812 134.272 81.7199 134.41C81.8586 134.549 81.9686 134.713 82.0437 134.895C82.1188 135.076 82.1574 135.27 82.1574 135.466C82.1574 135.662 82.1188 135.856 82.0437 136.038C81.9686 136.219 81.8586 136.383 81.7199 136.522C81.5812 136.661 81.4166 136.771 81.2354 136.846C81.0542 136.921 80.86 136.959 80.6639 136.959Z" fill="black"/>
<path d="M57.7913 122.085C57.9178 121.632 58.2189 121.248 58.6283 121.017C59.0378 120.786 59.5222 120.728 59.975 120.854C60.1991 120.917 60.4088 121.023 60.5919 121.166C60.7751 121.31 60.9282 121.488 61.0424 121.691C61.1566 121.894 61.2298 122.117 61.2577 122.348C61.2856 122.579 61.2677 122.813 61.2051 123.038C60.9426 123.981 59.9649 124.531 59.022 124.268C58.7978 124.206 58.588 124.1 58.4048 123.956C58.2215 123.813 58.0683 123.634 57.954 123.432C57.8397 123.229 57.7665 123.005 57.7386 122.774C57.7107 122.543 57.7286 122.309 57.7913 122.085ZM97.7626 120.939C97.2791 122.655 95.4933 123.656 93.7753 123.171C92.0588 122.688 91.0586 120.902 91.543 119.186C92.0265 117.468 93.8111 116.467 95.5287 116.951C97.2469 117.436 98.2467 119.221 97.7626 120.939ZM124.959 126.206C124.474 127.923 122.69 128.923 120.973 128.439C119.255 127.955 118.255 126.17 118.739 124.453C119.223 122.735 121.009 121.735 122.726 122.219C124.443 122.703 125.443 124.488 124.959 126.206ZM113.017 130.726C113.154 130.32 112.884 129.905 112.464 129.814L100.335 127.176C99.9177 127.086 99.4997 127.351 99.4535 127.778C99.0894 131.272 101.404 134.555 104.917 135.319C108.43 136.082 111.899 134.057 113.017 130.726Z" fill="black"/>
<path d="M108.253 133.347C108.07 134.183 106.531 134.559 104.813 134.186C103.095 133.812 101.849 132.83 102.031 131.995C102.213 131.159 103.752 130.784 105.471 131.157C107.19 131.53 108.433 132.512 108.253 133.347Z" fill="#FD631F"/>
</svg>
