<svg width="106" height="106" viewBox="0 0 106 106" fill="none" xmlns="http://www.w3.org/2000/svg">
<g clip-path="url(#clip0_11_129)">
<path d="M11.4472 52.8016C14.4593 61.1637 22.4606 67.1436 31.8604 67.1436C43.8411 67.1436 53.5536 57.4312 53.5536 45.4505C53.5536 38.9172 50.6613 33.0628 46.092 29.0858C50.7261 22.4032 58.4467 18.0247 67.1946 18.0247C81.3723 18.0247 92.8658 29.518 92.8658 43.6957C92.8658 46.3126 92.4716 48.8365 91.7441 51.2147C98.3732 54.257 102.98 60.9482 102.98 68.7197C102.98 79.3545 94.3585 87.9757 83.724 87.9757H22.276C11.6412 87.9757 3.02002 79.3547 3.02002 68.72C3.02002 62.1014 6.3615 56.2668 11.4472 52.8016Z" fill="#CFF09E"/>
<path d="M95.2603 49.6671C95.6758 47.7092 95.8855 45.7095 95.8855 43.6951C95.8855 27.8748 83.0148 15.0041 67.1944 15.0041C57.7935 15.0041 48.9771 19.6249 43.6098 27.3645C42.7324 28.6299 42.9475 30.3528 44.1087 31.3635C48.1916 34.917 50.5331 40.0516 50.5331 45.4503C50.5331 45.772 50.5251 46.0921 50.5087 46.4097C50.0077 56.2619 41.8345 64.1235 31.86 64.1235C31.8513 64.1235 31.8428 64.1228 31.8341 64.1228C31.5569 64.1226 31.2817 64.1143 31.0076 64.1019C30.9014 64.0972 30.7958 64.0899 30.6898 64.0833C30.5174 64.0725 30.3455 64.0595 30.1741 64.044C30.0437 64.0322 29.9133 64.0201 29.7832 64.0052C29.6501 63.9905 29.518 63.9723 29.3857 63.9545C28.7852 63.874 28.191 63.7663 27.6067 63.6291C27.5792 63.6227 27.5515 63.6164 27.5239 63.61C25.4696 63.1169 23.5282 62.2801 21.7757 61.1542C21.7416 61.1323 21.7074 61.1107 21.6734 61.0886C21.5149 60.9853 21.3585 60.8791 21.2029 60.7712C21.1289 60.7197 21.0555 60.6671 20.9824 60.6145C20.8519 60.5209 20.7215 60.4269 20.5934 60.33C20.4052 60.1872 20.2193 60.0418 20.0369 59.8924C19.9926 59.8561 19.9491 59.8187 19.905 59.7818C19.7189 59.6263 19.5354 59.468 19.3553 59.3056C19.316 59.2702 19.2777 59.234 19.2388 59.1984C19.0537 59.0284 18.8713 58.8554 18.693 58.6781C18.6754 58.6605 18.6576 58.6433 18.6402 58.626C16.9612 56.9413 15.6006 54.9392 14.6588 52.7181C14.6574 52.7148 14.6557 52.7111 14.6547 52.7078C13.7098 50.4758 13.1866 48.0229 13.1866 45.4505C13.1866 35.154 21.5633 26.7774 31.8598 26.7774C33.5274 26.7774 34.8797 25.4253 34.8797 23.7574C34.8797 22.0896 33.5274 20.7375 31.8598 20.7375C18.233 20.7375 7.14671 31.8235 7.14671 45.4505C7.14671 47.6003 7.42392 49.6866 7.94212 51.6763C2.93363 55.8888 0 62.1072 0 68.72C0 81.0029 9.99297 90.9959 22.2759 90.9959H83.7241C96.007 90.9959 106 81.0029 106 68.72C106 60.8992 101.857 53.6709 95.2603 49.6671ZM83.7239 84.9557H22.2759C13.3233 84.9557 6.03971 77.6722 6.03971 68.7195C6.03971 64.5785 7.61874 60.6478 10.3811 57.6746C11.6662 59.9265 13.2899 61.9372 15.1683 63.6554C15.2205 63.7034 15.2725 63.751 15.3255 63.7984C15.5803 64.0276 15.8383 64.2533 16.1022 64.4713C16.1886 64.5429 16.2774 64.611 16.3648 64.6814C16.5295 64.8139 16.6954 64.9454 16.8637 65.0737C17.009 65.1849 17.1552 65.2944 17.3028 65.4027C17.3925 65.4683 17.4838 65.5317 17.5742 65.5961C17.9351 65.8528 18.3026 66.1002 18.6775 66.3374C18.6885 66.3441 18.699 66.3513 18.7096 66.3579C20.9567 67.7763 23.4465 68.8419 26.102 69.4785C26.1329 69.486 26.1639 69.4928 26.195 69.5C26.6103 69.598 27.0293 69.6849 27.4525 69.7613C27.5761 69.7837 27.6993 69.8069 27.8233 69.8278C28.0084 69.8582 28.1945 69.887 28.3808 69.9133C28.6013 69.9448 28.8226 69.9721 29.0446 69.9977C29.2011 70.0156 29.3572 70.0338 29.5141 70.0485C29.8162 70.0775 30.1193 70.1 30.4234 70.1176C30.5335 70.124 30.6441 70.1296 30.7546 70.1346C31.1161 70.151 31.4782 70.1617 31.8424 70.1621C31.8484 70.1621 31.8542 70.1623 31.86 70.1623C45.0611 70.1623 55.8778 59.758 56.5407 46.7188C56.5623 46.2981 56.573 45.8747 56.573 45.4489C56.573 39.2632 54.2522 33.3411 50.1257 28.8117C54.4052 23.9073 60.619 21.0426 67.1941 21.0426C79.6839 21.0426 89.8454 31.2039 89.8454 43.6936C89.8454 45.9505 89.5123 48.1831 88.856 50.3294C88.4136 51.7759 89.1094 53.3268 90.4843 53.9576C96.2406 56.6006 99.9597 62.3947 99.9597 68.72C99.9599 77.6724 92.6765 84.9557 83.7239 84.9557Z" fill="#507C5C"/>
</g>
<defs>
<clipPath id="clip0_11_129">
<rect width="106" height="106" fill="white"/>
</clipPath>
</defs>
</svg>
