<svg width="101" height="106" viewBox="0 0 101 106" fill="none" xmlns="http://www.w3.org/2000/svg">
<path d="M10.9071 52.8016C13.7771 61.1637 21.401 67.1436 30.3575 67.1436C41.773 67.1436 51.0273 57.4312 51.0273 45.4505C51.0273 38.9172 48.2715 33.0628 43.9177 29.0858C48.3333 22.4032 55.6897 18.0247 64.0249 18.0247C77.5339 18.0247 88.4852 29.518 88.4852 43.6957C88.4852 46.3126 88.1096 48.8365 87.4164 51.2147C93.7329 54.257 98.1222 60.9482 98.1222 68.7197C98.1222 79.3545 89.9075 87.9757 79.7746 87.9757H21.2251C11.092 87.9757 2.87744 79.3547 2.87744 68.72C2.87744 62.1014 6.0613 56.2668 10.9071 52.8016Z" fill="#CEE8FA"/>
<path d="M90.7669 49.6671C91.1628 47.7092 91.3626 45.7095 91.3626 43.6951C91.3626 27.8748 79.099 15.0041 64.0248 15.0041C55.0674 15.0041 46.6668 19.6249 41.5527 27.3645C40.7167 28.6299 40.9217 30.3528 42.0281 31.3635C45.9184 34.917 48.1495 40.0516 48.1495 45.4503C48.1495 45.772 48.1418 46.0921 48.1262 46.4097C47.6488 56.2619 39.8612 64.1235 30.3571 64.1235C30.3489 64.1235 30.3408 64.1228 30.3325 64.1228C30.0684 64.1226 29.8062 64.1143 29.545 64.1019C29.4438 64.0972 29.3432 64.0899 29.2422 64.0833C29.0779 64.0725 28.9142 64.0595 28.7508 64.044C28.6265 64.0322 28.5023 64.0201 28.3784 64.0052C28.2515 63.9905 28.1257 63.9723 27.9996 63.9545C27.4274 63.874 26.8612 63.7663 26.3045 63.6291C26.2783 63.6227 26.2519 63.6164 26.2256 63.61C24.2682 63.1169 22.4184 62.2801 20.7486 61.1542C20.716 61.1323 20.6835 61.1107 20.6511 61.0886C20.5 60.9853 20.3511 60.8791 20.2027 60.7712C20.1323 60.7197 20.0623 60.6671 19.9926 60.6145C19.8684 60.5209 19.7441 60.4269 19.622 60.33C19.4427 60.1872 19.2655 60.0418 19.0917 59.8924C19.0495 59.8561 19.0081 59.8187 18.9661 59.7818C18.7887 59.6263 18.6139 59.468 18.4423 59.3056C18.4048 59.2702 18.3684 59.234 18.3313 59.1984C18.1549 59.0284 17.9811 58.8554 17.8113 58.6781C17.7945 58.6605 17.7775 58.6433 17.761 58.626C16.1612 56.9413 14.8647 54.9392 13.9674 52.7181C13.966 52.7148 13.9644 52.7111 13.9634 52.7078C13.0631 50.4758 12.5646 48.0229 12.5646 45.4505C12.5646 35.154 20.5462 26.7774 30.357 26.7774C31.9459 26.7774 33.2345 25.4253 33.2345 23.7574C33.2345 22.0896 31.9459 20.7375 30.357 20.7375C17.373 20.7375 6.8096 31.8235 6.8096 45.4505C6.8096 47.6003 7.07373 49.6866 7.56749 51.6763C2.79525 55.8888 0 62.1072 0 68.72C0 81.0029 9.5216 90.9959 21.2251 90.9959H79.7748C91.4784 90.9959 101 81.0029 101 68.72C101 60.8992 97.0525 53.6709 90.7669 49.6671ZM79.7747 84.9557H21.2251C12.6948 84.9557 5.75482 77.6722 5.75482 68.7195C5.75482 64.5785 7.25936 60.6478 9.89147 57.6747C11.1159 59.9265 12.663 61.9372 14.4528 63.6554C14.5025 63.7034 14.5521 63.751 14.6026 63.7984C14.8454 64.0276 15.0912 64.2533 15.3427 64.4713C15.425 64.5429 15.5096 64.611 15.5928 64.6814C15.7499 64.8139 15.9079 64.9454 16.0682 65.0737C16.2067 65.1849 16.346 65.2944 16.4866 65.4027C16.5721 65.4683 16.659 65.5317 16.7453 65.5961C17.0891 65.8528 17.4392 66.1002 17.7965 66.3374C17.8069 66.3441 17.817 66.3513 17.8271 66.3579C19.9682 67.7763 22.3405 68.8419 24.8708 69.4785C24.9002 69.486 24.9298 69.4928 24.9594 69.5C25.3551 69.598 25.7544 69.6849 26.1576 69.7613C26.2753 69.7837 26.3927 69.8069 26.5109 69.8278C26.6872 69.8582 26.8646 69.887 27.0421 69.9133C27.2522 69.9448 27.4631 69.9721 27.6745 69.9978C27.8237 70.0156 27.9724 70.0338 28.1219 70.0485C28.4097 70.0775 28.6985 70.1 28.9883 70.1176C29.0933 70.124 29.1986 70.1296 29.3039 70.1346C29.6484 70.151 29.9934 70.1617 30.3404 70.1621C30.3461 70.1621 30.3516 70.1623 30.3571 70.1623C42.9356 70.1623 53.2421 59.758 53.8737 46.7188C53.8942 46.2981 53.9045 45.8747 53.9045 45.4489C53.9045 39.2632 51.6932 33.3411 47.7613 28.8117C51.8389 23.9073 57.7597 21.0426 64.0246 21.0426C75.9252 21.0426 85.6074 31.2039 85.6074 43.6937C85.6074 45.9505 85.29 48.1831 84.6647 50.3294C84.2431 51.7759 84.9061 53.3268 86.2162 53.9576C91.7009 56.6006 95.2446 62.3948 95.2446 68.72C95.2448 77.6724 88.305 84.9557 79.7747 84.9557Z" fill="#2D527C"/>
</svg>
